<svg width="660" height="600" viewBox="-50 -50 660 600" xmlns="http://www.w3.org/2000/svg">
<defs><style>
.wall { fill: none; stroke: black; stroke-width: 3; }
.zone-fill { stroke: none; fill-opacity: 0.5; }
.zone-line { fill: none; stroke: #333; stroke-width: 1; stroke-dasharray: 5,5; }
.room-fill { fill-opacity: 0.2; stroke: none; }
.door-gap { fill: white; stroke: none; }
.dim-line { stroke: #555; stroke-width: 1; stroke-dasharray: 2; }
.dim-text { font-family: sans-serif; font-size: 10px; fill: #666; text-anchor: middle; }
.label-room { font-family: sans-serif; font-size: 14px; font-weight: bold; fill: black; text-anchor: middle; }
.label-zone { font-family: sans-serif; font-size: 10px; font-weight: normal; fill: #333; text-anchor: middle; font-style: italic;}
.marker-pin { stroke: white; stroke-width: 2; }
.marker-anchor { stroke: white; stroke-width: 2; }
.marker-label { font-family: sans-serif; font-size: 10px; fill: #111; }
</style></defs>
<g id="layer1-structure">
<rect x="0" y="0" width="160" height="180" class="room-fill" fill="#FFD700" />
<rect x="40" y="180" width="520" height="60" class="room-fill" fill="#D3D3D3" />
<rect x="460" y="0" width="100" height="180" class="room-fill" fill="#D3D3D3" />
<rect x="160" y="20" width="20" height="160" class="room-fill" fill="#D3D3D3" />
<rect x="0" y="240" width="560" height="260" class="room-fill" fill="#ADD8E6" />
<rect x="180" y="0" width="280" height="180" class="room-fill" fill="#90EE90" />
<rect x="460" y="340" width="100" height="160" class="zone-fill" fill="#B7B5B5" />
<rect x="460" y="340" width="100" height="160" class="zone-line" />
<rect x="30.0" y="370.0" width="40" height="80" class="zone-fill" fill="#4682B4" />
<rect x="30.0" y="370.0" width="40" height="80" class="zone-line" />
<rect x="180" y="330.0" width="10.0" height="10.0" class="zone-fill" fill="#9D5656" />
<rect x="180" y="330.0" width="10.0" height="10.0" class="zone-line" />
<rect x="0" y="340" width="30.0" height="120" class="zone-fill" fill="#E6ADE6" />
<rect x="0" y="340" width="30.0" height="120" class="zone-line" />
<rect x="360" y="240" width="200" height="100" class="zone-fill" fill="#E6ADE6" />
<rect x="360" y="240" width="200" height="100" class="zone-line" />
<rect x="380" y="180" width="80" height="25.0" class="zone-fill" fill="#4682B4" />
<rect x="380" y="180" width="80" height="25.0" class="zone-line" />
<rect x="460" y="0" width="100" height="60" class="zone-fill" fill="#FFA07A" />
<rect x="460" y="0" width="100" height="60" class="zone-line" />
<rect x="180" y="150.0" width="180" height="30.0" class="zone-fill" fill="#9D5656" />
<rect x="180" y="150.0" width="180" height="30.0" class="zone-line" />
<polygon points="240,240 360,240 360,340" class="room-fill" fill="#5D3030" />
<rect x="0" y="0" width="160" height="180" class="wall" />
<rect x="40" y="180" width="520" height="60" class="wall" />
<rect x="460" y="0" width="100" height="180" class="wall" />
<rect x="160" y="20" width="20" height="160" class="wall" />
<rect x="0" y="240" width="560" height="260" class="wall" />
<rect x="180" y="0" width="280" height="180" class="wall" />
<rect x="478" y="53.0" width="64" height="14.0" class="door-gap" />
<rect x="468.0" y="173.0" width="84" height="14.0" class="door-gap" />
<rect x="78" y="173.0" width="44" height="14.0" class="door-gap" />
<rect x="118" y="233.0" width="64" height="14.0" class="door-gap" />
<rect x="453.0" y="108.0" width="14.0" height="29.0" class="door-gap" />
<rect x="508.0" y="-2" width="24" height="14.0" class="door-gap" />
<rect x="-2" y="358" width="10.0" height="74.0" class="door-gap" />
<rect x="508.0" y="233.0" width="34.0" height="14.0" class="door-gap" />
<rect x="378" y="233.0" width="34.0" height="14.0" class="door-gap" />
</g>
<g id="layer2-measurements">
<line x1="0.0" y1="-10.0" x2="160.0" y2="-10.0" class="dim-line" />
<text x="80.0" y="-15.0" class="dim-text">8.0m</text>
<line x1="-10.0" y1="0.0" x2="-10.0" y2="180.0" class="dim-line" />
<text x="-25.0" y="90.0" class="dim-text">9.0m</text>
<line x1="40.0" y1="170.0" x2="560.0" y2="170.0" class="dim-line" />
<text x="300.0" y="165.0" class="dim-text">26.0m</text>
<line x1="30.0" y1="180.0" x2="30.0" y2="240.0" class="dim-line" />
<text x="15.0" y="210.0" class="dim-text">3.0m</text>
<line x1="460.0" y1="-10.0" x2="560.0" y2="-10.0" class="dim-line" />
<text x="510.0" y="-15.0" class="dim-text">5.0m</text>
<line x1="450.0" y1="0.0" x2="450.0" y2="180.0" class="dim-line" />
<text x="435.0" y="90.0" class="dim-text">9.0m</text>
<line x1="160.0" y1="10.0" x2="180.0" y2="10.0" class="dim-line" />
<text x="170.0" y="5.0" class="dim-text">1.0m</text>
<line x1="150.0" y1="20.0" x2="150.0" y2="180.0" class="dim-line" />
<text x="135.0" y="100.0" class="dim-text">8.0m</text>
<line x1="0.0" y1="230.0" x2="560.0" y2="230.0" class="dim-line" />
<text x="280.0" y="225.0" class="dim-text">28.0m</text>
<line x1="-10.0" y1="240.0" x2="-10.0" y2="500.0" class="dim-line" />
<text x="-25.0" y="370.0" class="dim-text">13.0m</text>
<line x1="180.0" y1="-10.0" x2="460.0" y2="-10.0" class="dim-line" />
<text x="320.0" y="-15.0" class="dim-text">14.0m</text>
<line x1="170.0" y1="0.0" x2="170.0" y2="180.0" class="dim-line" />
<text x="155.0" y="90.0" class="dim-text">9.0m</text>
</g>
<g id="layer3-labels">
<text x="80.0" y="90.0" class="label-room">Patio</text>
<text x="300.0" y="210.0" class="label-room">Hallway</text>
<text x="510.0" y="90.0" class="label-room"></text>
<text x="170.0" y="100.0" class="label-room"></text>
<text x="280.0" y="370.0" class="label-room">Annex</text>
<text x="320.0" y="110.0" class="label-room">Front Room</text>
<text x="510.0" y="420.0" class="label-zone">VIP Area / Main Stage</text>
<text x="50.0" y="410.0" class="label-zone">Sound Booth</text>
<text x="185.0" y="335.0" class="label-zone">pole</text>
<text x="15.0" y="400.0" class="label-zone">Bathrooms</text>
<text x="460.0" y="290.0" class="label-zone">Bathrooms</text>
<text x="420.0" y="192.5" class="label-zone">Photobooth</text>
<text x="510.0" y="30.0" class="label-zone">Lobby</text>
<text x="270.0" y="165.0" class="label-zone">Main Bar__</text>
</g>
<g id="layer4-markers">
<circle cx="516.0" cy="16.0" r="5" fill="#1E90FF" class="marker-pin" />
<text x="525.0" y="20.0" class="marker-label">Entrance</text>
<circle cx="500.0" cy="180.0" r="5" fill="#1E90FF" class="marker-pin" />
<text x="509.0" y="184.0" class="marker-label">Hall Turn</text>
</g>
</svg>